<svg width="731" height="109" viewBox="0 0 731 109" fill="none" xmlns="http://www.w3.org/2000/svg">
<g filter="url(#filter0_d_2_10)">
<rect x="4" width="100" height="100" rx="10" fill="#2667FF"/>
<rect x="4.5" y="0.5" width="99" height="99" rx="9.5" stroke="white"/>
</g>
<g filter="url(#filter1_d_2_10)">
<rect x="14" y="60" width="20" height="80" rx="5" transform="rotate(-90 14 60)" fill="white"/>
<rect x="44" y="10" width="20" height="80" rx="5" fill="white"/>
</g>
<g filter="url(#filter2_d_2_10)">
<path d="M209.094 44.1875C209.094 46.3958 208.667 48.4792 207.812 50.4375C206.979 52.375 205.833 54.0729 204.375 55.5312C202.938 56.9688 201.25 58.1042 199.312 58.9375C197.375 59.7708 195.302 60.1875 193.094 60.1875H167.375V53.875H193.094C194.427 53.875 195.677 53.625 196.844 53.125C198.01 52.6042 199.021 51.9062 199.875 51.0312C200.75 50.1562 201.438 49.1354 201.938 47.9688C202.438 46.7812 202.688 45.5208 202.688 44.1875C202.688 42.8542 202.438 41.6042 201.938 40.4375C201.438 39.2708 200.75 38.2604 199.875 37.4062C199.021 36.5312 198.01 35.8438 196.844 35.3438C195.677 34.8438 194.427 34.5938 193.094 34.5938H163.781V73H157.375V28.1875H193.094C195.302 28.1875 197.375 28.6146 199.312 29.4688C201.25 30.3021 202.938 31.4479 204.375 32.9062C205.833 34.3438 206.979 36.0312 207.812 37.9688C208.667 39.9062 209.094 41.9792 209.094 44.1875ZM256.475 73H224.475C222.912 73 221.454 72.7083 220.1 72.125C218.746 71.5417 217.558 70.75 216.537 69.75C215.517 68.7292 214.715 67.5417 214.131 66.1875C213.548 64.8125 213.256 63.3542 213.256 61.8125C213.256 60.25 213.548 58.7917 214.131 57.4375C214.715 56.0833 215.517 54.8958 216.537 53.875C217.558 52.8542 218.746 52.0521 220.1 51.4688C221.454 50.8854 222.912 50.5938 224.475 50.5938H246.85V57H224.475C223.808 57 223.183 57.1354 222.6 57.4062C222.017 57.6562 221.506 58 221.069 58.4375C220.631 58.875 220.287 59.3854 220.037 59.9688C219.787 60.5521 219.662 61.1667 219.662 61.8125C219.662 62.4792 219.787 63.1042 220.037 63.6875C220.287 64.25 220.631 64.75 221.069 65.1875C221.506 65.625 222.017 65.9688 222.6 66.2188C223.183 66.4688 223.808 66.5938 224.475 66.5938H250.069V49C250.069 48.3542 249.933 47.7396 249.662 47.1562C249.412 46.5729 249.069 46.0625 248.631 45.625C248.194 45.1875 247.683 44.8438 247.1 44.5938C246.517 44.3229 245.902 44.1875 245.256 44.1875H219.662V37.8125H245.256C246.819 37.8125 248.277 38.1042 249.631 38.6875C250.985 39.2708 252.173 40.0729 253.194 41.0938C254.215 42.0938 255.017 43.2708 255.6 44.625C256.183 45.9792 256.475 47.4375 256.475 49V73ZM279.419 73H273.012V44.1875H263.419V37.8125H273.012V25H279.419V37.8125H301.825V44.1875H279.419V73ZM316.456 29.8125C316.456 30.4792 316.331 31.1042 316.081 31.6875C315.831 32.25 315.488 32.75 315.05 33.1875C314.613 33.625 314.102 33.9688 313.519 34.2188C312.935 34.4688 312.321 34.5938 311.675 34.5938C311.008 34.5938 310.383 34.4688 309.8 34.2188C309.217 33.9688 308.706 33.625 308.269 33.1875C307.831 32.75 307.488 32.25 307.238 31.6875C306.988 31.1042 306.863 30.4792 306.863 29.8125C306.863 29.1667 306.988 28.5521 307.238 27.9688C307.488 27.3854 307.831 26.875 308.269 26.4375C308.706 26 309.217 25.6562 309.8 25.4062C310.383 25.1354 311.008 25 311.675 25C312.321 25 312.935 25.1354 313.519 25.4062C314.102 25.6562 314.613 26 315.05 26.4375C315.488 26.875 315.831 27.3854 316.081 27.9688C316.331 28.5521 316.456 29.1667 316.456 29.8125ZM314.863 73H308.456V37.8125H314.863V73ZM366.65 49C366.65 50.5625 366.358 52.0208 365.775 53.375C365.192 54.7292 364.39 55.9167 363.369 56.9375C362.369 57.9375 361.181 58.7292 359.806 59.3125C358.452 59.8958 357.004 60.1875 355.462 60.1875H330.931C331.39 61.125 331.962 61.9896 332.65 62.7812C333.337 63.5729 334.108 64.25 334.962 64.8125C335.817 65.375 336.744 65.8125 337.744 66.125C338.765 66.4375 339.827 66.5938 340.931 66.5938H361.869V73H340.931C338.515 72.9792 336.244 72.5104 334.119 71.5938C331.994 70.6562 330.14 69.3958 328.556 67.8125C326.994 66.2083 325.754 64.3438 324.837 62.2188C323.921 60.0938 323.462 57.8229 323.462 55.4062C323.462 52.9896 323.921 50.7188 324.837 48.5938C325.754 46.4688 326.994 44.6146 328.556 43.0312C330.14 41.4271 331.994 40.1667 334.119 39.25C336.244 38.3125 338.515 37.8333 340.931 37.8125H355.462C357.004 37.8125 358.452 38.1042 359.806 38.6875C361.181 39.2708 362.369 40.0729 363.369 41.0938C364.39 42.0938 365.192 43.2708 365.775 44.625C366.358 45.9792 366.65 47.4375 366.65 49ZM355.462 53.8125C356.108 53.8125 356.723 53.6875 357.306 53.4375C357.89 53.1875 358.4 52.8438 358.837 52.4062C359.275 51.9688 359.619 51.4583 359.869 50.875C360.119 50.2917 360.244 49.6667 360.244 49C360.244 48.3542 360.119 47.7396 359.869 47.1562C359.619 46.5729 359.275 46.0625 358.837 45.625C358.4 45.1875 357.89 44.8438 357.306 44.5938C356.723 44.3229 356.108 44.1875 355.462 44.1875H340.931C339.515 44.1875 338.181 44.4375 336.931 44.9375C335.702 45.4375 334.598 46.125 333.619 47C332.66 47.8542 331.858 48.875 331.212 50.0625C330.587 51.2292 330.181 52.4792 329.994 53.8125H355.462ZM380.938 73H374.531V37.8125H398.531C400.948 37.8125 403.219 38.2812 405.344 39.2188C407.469 40.1354 409.323 41.3958 410.906 43C412.49 44.5833 413.74 46.4479 414.656 48.5938C415.573 50.7188 416.031 52.9896 416.031 55.4062V73H409.625V55.4062C409.625 53.8646 409.333 52.4167 408.75 51.0625C408.167 49.7083 407.375 48.5312 406.375 47.5312C405.375 46.5104 404.198 45.7083 402.844 45.125C401.51 44.5208 400.073 44.2083 398.531 44.1875H380.938V73ZM438.069 73H431.663V44.1875H422.069V37.8125H431.663V25H438.069V37.8125H460.475V44.1875H438.069V73ZM503.856 61.8125C503.856 63.3542 503.565 64.8125 502.981 66.1875C502.398 67.5417 501.596 68.7292 500.575 69.75C499.575 70.75 498.388 71.5417 497.013 72.125C495.658 72.7083 494.21 73 492.669 73H465.45V66.5938H492.669C493.315 66.5938 493.929 66.4688 494.513 66.2188C495.096 65.9688 495.606 65.625 496.044 65.1875C496.481 64.75 496.825 64.25 497.075 63.6875C497.325 63.1042 497.45 62.4792 497.45 61.8125C497.45 61.1667 497.325 60.5521 497.075 59.9688C496.825 59.3854 496.481 58.875 496.044 58.4375C495.606 58 495.096 57.6562 494.513 57.4062C493.929 57.1354 493.315 57 492.669 57H475.044C473.71 57 472.46 56.75 471.294 56.25C470.127 55.75 469.106 55.0729 468.231 54.2188C467.377 53.3438 466.7 52.3229 466.2 51.1562C465.7 49.9896 465.45 48.7396 465.45 47.4062C465.45 46.0729 465.7 44.8229 466.2 43.6562C466.7 42.4896 467.377 41.4792 468.231 40.625C469.106 39.75 470.127 39.0625 471.294 38.5625C472.46 38.0625 473.71 37.8125 475.044 37.8125H500.669V44.1875H475.044C474.148 44.1875 473.388 44.5 472.763 45.125C472.158 45.7292 471.856 46.4896 471.856 47.4062C471.856 48.3021 472.158 49.0625 472.763 49.6875C473.388 50.2917 474.148 50.5938 475.044 50.5938H492.669C494.21 50.5938 495.658 50.8854 497.013 51.4688C498.388 52.0521 499.575 52.8542 500.575 53.875C501.596 54.8958 502.398 56.0833 502.981 57.4375C503.565 58.7917 503.856 60.25 503.856 61.8125ZM585.306 73H556.462C553.358 73 550.535 72.4167 547.994 71.25C545.452 70.0833 543.275 68.4896 541.462 66.4688C539.671 64.4479 538.285 62.0729 537.306 59.3438C536.327 56.6146 535.837 53.6979 535.837 50.5938C535.837 47.5104 536.327 44.6146 537.306 41.9062C538.285 39.1771 539.671 36.8021 541.462 34.7812C543.275 32.7396 545.452 31.1354 547.994 29.9688C550.535 28.7812 553.358 28.1875 556.462 28.1875H585.306V34.5938H556.462C554.254 34.5938 552.265 35.0208 550.494 35.875C548.744 36.7083 547.254 37.8542 546.025 39.3125C544.817 40.75 543.879 42.4375 543.212 44.375C542.567 46.3125 542.244 48.3854 542.244 50.5938C542.244 52.8021 542.567 54.8854 543.212 56.8438C543.879 58.7812 544.817 60.4792 546.025 61.9375C547.254 63.375 548.744 64.5104 550.494 65.3438C552.265 66.1771 554.254 66.5938 556.462 66.5938H585.306V73ZM634 73H602C600.438 73 598.979 72.7083 597.625 72.125C596.271 71.5417 595.083 70.75 594.062 69.75C593.042 68.7292 592.24 67.5417 591.656 66.1875C591.073 64.8125 590.781 63.3542 590.781 61.8125C590.781 60.25 591.073 58.7917 591.656 57.4375C592.24 56.0833 593.042 54.8958 594.062 53.875C595.083 52.8542 596.271 52.0521 597.625 51.4688C598.979 50.8854 600.438 50.5938 602 50.5938H624.375V57H602C601.333 57 600.708 57.1354 600.125 57.4062C599.542 57.6562 599.031 58 598.594 58.4375C598.156 58.875 597.812 59.3854 597.562 59.9688C597.312 60.5521 597.188 61.1667 597.188 61.8125C597.188 62.4792 597.312 63.1042 597.562 63.6875C597.812 64.25 598.156 64.75 598.594 65.1875C599.031 65.625 599.542 65.9688 600.125 66.2188C600.708 66.4688 601.333 66.5938 602 66.5938H627.594V49C627.594 48.3542 627.458 47.7396 627.188 47.1562C626.938 46.5729 626.594 46.0625 626.156 45.625C625.719 45.1875 625.208 44.8438 624.625 44.5938C624.042 44.3229 623.427 44.1875 622.781 44.1875H597.188V37.8125H622.781C624.344 37.8125 625.802 38.1042 627.156 38.6875C628.51 39.2708 629.698 40.0729 630.719 41.0938C631.74 42.0938 632.542 43.2708 633.125 44.625C633.708 45.9792 634 47.4375 634 49V73ZM679.538 44.1875H655.538C654.871 44.1875 654.246 44.3229 653.663 44.5938C653.079 44.8438 652.569 45.1875 652.131 45.625C651.694 46.0625 651.35 46.5729 651.1 47.1562C650.85 47.7396 650.725 48.3542 650.725 49V73H644.319V49C644.319 47.4375 644.61 45.9792 645.194 44.625C645.777 43.2708 646.579 42.0938 647.6 41.0938C648.621 40.0729 649.808 39.2708 651.163 38.6875C652.517 38.1042 653.975 37.8125 655.538 37.8125H679.538V44.1875ZM726.825 49C726.825 50.5625 726.533 52.0208 725.95 53.375C725.367 54.7292 724.565 55.9167 723.544 56.9375C722.544 57.9375 721.356 58.7292 719.981 59.3125C718.627 59.8958 717.179 60.1875 715.638 60.1875H691.106C691.565 61.125 692.138 61.9896 692.825 62.7812C693.513 63.5729 694.283 64.25 695.138 64.8125C695.992 65.375 696.919 65.8125 697.919 66.125C698.94 66.4375 700.002 66.5938 701.106 66.5938H722.044V73H701.106C698.69 72.9792 696.419 72.5104 694.294 71.5938C692.169 70.6562 690.315 69.3958 688.731 67.8125C687.169 66.2083 685.929 64.3438 685.013 62.2188C684.096 60.0938 683.638 57.8229 683.638 55.4062C683.638 52.9896 684.096 50.7188 685.013 48.5938C685.929 46.4688 687.169 44.6146 688.731 43.0312C690.315 41.4271 692.169 40.1667 694.294 39.25C696.419 38.3125 698.69 37.8333 701.106 37.8125H715.638C717.179 37.8125 718.627 38.1042 719.981 38.6875C721.356 39.2708 722.544 40.0729 723.544 41.0938C724.565 42.0938 725.367 43.2708 725.95 44.625C726.533 45.9792 726.825 47.4375 726.825 49ZM715.638 53.8125C716.283 53.8125 716.898 53.6875 717.481 53.4375C718.065 53.1875 718.575 52.8438 719.013 52.4062C719.45 51.9688 719.794 51.4583 720.044 50.875C720.294 50.2917 720.419 49.6667 720.419 49C720.419 48.3542 720.294 47.7396 720.044 47.1562C719.794 46.5729 719.45 46.0625 719.013 45.625C718.575 45.1875 718.065 44.8438 717.481 44.5938C716.898 44.3229 716.283 44.1875 715.638 44.1875H701.106C699.69 44.1875 698.356 44.4375 697.106 44.9375C695.877 45.4375 694.773 46.125 693.794 47C692.835 47.8542 692.033 48.875 691.388 50.0625C690.763 51.2292 690.356 52.4792 690.169 53.8125H715.638Z" fill="#243B53"/>
</g>
<defs>
<filter id="filter0_d_2_10" x="0" y="0" width="108" height="109" filterUnits="userSpaceOnUse" color-interpolation-filters="sRGB">
<feFlood flood-opacity="0" result="BackgroundImageFix"/>
<feColorMatrix in="SourceAlpha" type="matrix" values="0 0 0 0 0 0 0 0 0 0 0 0 0 0 0 0 0 0 127 0" result="hardAlpha"/>
<feOffset dy="5"/>
<feGaussianBlur stdDeviation="2"/>
<feComposite in2="hardAlpha" operator="out"/>
<feColorMatrix type="matrix" values="0 0 0 0 0 0 0 0 0 0 0 0 0 0 0 0 0 0 0.25 0"/>
<feBlend mode="normal" in2="BackgroundImageFix" result="effect1_dropShadow_2_10"/>
<feBlend mode="normal" in="SourceGraphic" in2="effect1_dropShadow_2_10" result="shape"/>
</filter>
<filter id="filter1_d_2_10" x="10" y="10" width="88" height="90" filterUnits="userSpaceOnUse" color-interpolation-filters="sRGB">
<feFlood flood-opacity="0" result="BackgroundImageFix"/>
<feColorMatrix in="SourceAlpha" type="matrix" values="0 0 0 0 0 0 0 0 0 0 0 0 0 0 0 0 0 0 127 0" result="hardAlpha"/>
<feOffset dy="6"/>
<feGaussianBlur stdDeviation="2"/>
<feComposite in2="hardAlpha" operator="out"/>
<feColorMatrix type="matrix" values="0 0 0 0 0 0 0 0 0 0 0 0 0 0 0 0 0 0 0.25 0"/>
<feBlend mode="normal" in2="BackgroundImageFix" result="effect1_dropShadow_2_10"/>
<feBlend mode="normal" in="SourceGraphic" in2="effect1_dropShadow_2_10" result="shape"/>
</filter>
<filter id="filter2_d_2_10" x="153.375" y="24" width="577.45" height="56" filterUnits="userSpaceOnUse" color-interpolation-filters="sRGB">
<feFlood flood-opacity="0" result="BackgroundImageFix"/>
<feColorMatrix in="SourceAlpha" type="matrix" values="0 0 0 0 0 0 0 0 0 0 0 0 0 0 0 0 0 0 127 0" result="hardAlpha"/>
<feOffset dy="3"/>
<feGaussianBlur stdDeviation="2"/>
<feComposite in2="hardAlpha" operator="out"/>
<feColorMatrix type="matrix" values="0 0 0 0 0 0 0 0 0 0 0 0 0 0 0 0 0 0 0.25 0"/>
<feBlend mode="normal" in2="BackgroundImageFix" result="effect1_dropShadow_2_10"/>
<feBlend mode="normal" in="SourceGraphic" in2="effect1_dropShadow_2_10" result="shape"/>
</filter>
</defs>
</svg>
